<svg xmlns="http://www.w3.org/2000/svg" width="512" height="512" viewBox="0 0 512 512">
  <defs>
    <pattern id="checks" width="64" height="64" patternUnits="userSpaceOnUse">
      <rect width="32" height="32" fill="rgba(255,255,255,0.07)"/>
      <rect x="32" y="32" width="32" height="32" fill="rgba(255,255,255,0.07)"/>
    </pattern>
    <clipPath id="clip">
      <rect width="512" height="512" rx="110"/>
    </clipPath>
  </defs>
  <rect width="512" height="512" rx="110" fill="#059669"/>
  <rect width="512" height="512" fill="url(#checks)" clip-path="url(#clip)"/>
  <circle cx="256" cy="268" r="152" fill="rgba(255,255,255,0.15)"/>
  <circle cx="256" cy="268" r="140" fill="white"/>
  <circle cx="256" cy="268" r="128" fill="none" stroke="#d1fae5" stroke-width="3"/>
  <circle cx="256" cy="268" r="90" fill="none" stroke="#d1fae5" stroke-width="2"/>
  <!-- Forchetta -->
  <g transform="translate(148,108)" fill="#059669">
    <rect x="6" y="0" width="9" height="56" rx="4.5"/>
    <rect x="21" y="0" width="9" height="56" rx="4.5"/>
    <rect x="36" y="0" width="9" height="56" rx="4.5"/>
    <path d="M6,52 Q10,70 18,75 L18,195 Q18,202 22.5,202 Q27,202 27,195 L27,75 Q35,70 39,52 Z"/>
  </g>
  <!-- Coltello -->
  <g transform="translate(312,108)" fill="#059669">
    <path d="M9,0 Q36,0 40,28 L40,64 Q40,70 34,72 L16,72 Q10,70 10,64 L10,28 Q5,14 9,0 Z"/>
    <rect x="14" y="70" width="22" height="132" rx="11"/>
  </g>
</svg>
